<?xml version="1.0" standalone="no"?>
<!DOCTYPE svg PUBLIC "-//W3C//DTD SVG 20010904//EN"
 "http://www.w3.org/TR/2001/REC-SVG-20010904/DTD/svg10.dtd">
<svg version="1.0" xmlns="http://www.w3.org/2000/svg"
 width="1200.000000pt" height="1200.000000pt" viewBox="0 0 1200.000000 1200.000000"
 preserveAspectRatio="xMidYMid meet">
<metadata>
Created by potrace 1.16, written by Peter Selinger 2001-2019
</metadata>
<g transform="translate(0.000000,1200.000000) scale(0.100000,-0.100000)"
fill="#000000" stroke="none">
<path d="M4273 11185 c-100 -31 -190 -112 -241 -215 -25 -50 -27 -65 -27 -170
0 -107 2 -119 29 -175 38 -77 114 -153 191 -191 l60 -29 2490 -5 c2280 -5
2494 -6 2537 -21 156 -55 254 -173 278 -334 13 -97 13 -7993 0 -8090 -23 -158
-125 -281 -275 -333 -47 -16 -220 -17 -2640 -22 l-2590 -5 -60 -29 c-77 -38
-153 -114 -191 -191 -27 -56 -29 -68 -29 -175 0 -107 2 -119 29 -175 38 -77
114 -153 191 -191 l60 -29 2815 -3 c2783 -2 2816 -2 2895 18 285 71 513 299
585 584 20 78 20 120 20 4596 0 4492 0 4517 -20 4596 -73 288 -296 511 -584
584 -78 20 -106 20 -2780 19 -2214 0 -2709 -3 -2743 -14z"/>
<path d="M5460 8399 c-122 -20 -239 -109 -296 -224 -27 -55 -29 -69 -29 -170
0 -194 -50 -131 739 -922 l680 -683 -2734 -2 -2735 -3 -60 -29 c-77 -38 -153
-114 -191 -191 -27 -56 -29 -68 -29 -175 0 -107 2 -119 29 -175 38 -77 114
-153 191 -191 l60 -29 2732 -3 2732 -2 -679 -678 c-784 -783 -735 -722 -735
-907 0 -103 2 -114 32 -177 40 -85 106 -151 191 -191 63 -30 74 -32 177 -32
190 0 70 -104 1332 1163 623 625 1110 1122 1120 1142 22 46 22 134 -2 180 -23
45 -2187 2214 -2240 2245 -86 51 -186 70 -285 54z"/>
</g>
</svg>
